<svg width="179" height="60" viewBox="0 0 179 60" fill="none" xmlns="http://www.w3.org/2000/svg">
<path d="M134.146 32.0732L133.97 32.1778L133.868 32.3547C133.366 33.2189 132.722 34.2764 131.971 35.4201C132.305 34.7592 132.566 34.0684 132.733 33.3938C132.998 32.3214 133.051 31.1785 132.648 30.2567C132.44 29.7805 132.109 29.364 131.635 29.0725C131.165 28.7833 130.603 28.6469 129.977 28.6469C128.723 28.6469 127.176 29.3 125.627 30.2571C124.047 31.2342 122.349 32.6017 120.766 34.1867C117.631 37.3251 114.795 41.4717 114.371 45.2937C113.969 48.9106 114.798 51.3909 116.919 52.2137C117.925 52.6038 119.081 52.5458 120.257 52.1976C121.437 51.8479 122.698 51.1886 123.968 50.2861L124.019 50.2502L124.063 50.207L128.763 45.6111C128.318 46.5618 127.847 47.6356 127.481 48.6445C127.079 49.7536 126.748 50.9283 126.808 51.7964C126.838 52.2355 126.983 52.798 127.493 53.1329C127.996 53.4625 128.595 53.401 129.112 53.2363L129.196 53.2097L129.271 53.1655C130.497 52.4479 132.469 51.1452 134.442 49.5484C134.739 49.3084 135.037 49.0609 135.333 48.8067C135.13 49.2897 134.958 49.7536 134.828 50.1835C134.669 50.7094 134.559 51.2291 134.55 51.6952C134.542 52.1443 134.627 52.6865 135.018 53.0886C135.435 53.5163 136.007 53.596 136.54 53.5253C137.066 53.4556 137.677 53.2289 138.369 52.8755C140.206 51.9877 142.401 50.045 144.352 48.061C144.837 47.5682 145.311 47.0677 145.767 46.5728C145.595 46.9123 145.427 47.2537 145.268 47.591C144.715 48.7677 144.233 49.9836 144.106 50.911C144.047 51.3497 144.037 51.9167 144.337 52.3712C144.706 52.9295 145.323 53.0342 145.868 52.9481C146.637 52.8266 147.6 52.3424 148.575 51.7406C149.58 51.1202 150.702 50.3082 151.815 49.4296C154.039 47.6753 156.29 45.6089 157.588 44.173L157.599 44.1615L157.609 44.1496L162.231 38.6174L162.372 38.4478C162.386 38.4377 162.397 38.4281 162.407 38.4196C162.476 38.3612 162.533 38.2974 162.576 38.2472C162.663 38.1431 162.76 38.0077 162.863 37.8528L162.661 37.7011C162.713 37.5491 162.799 37.3333 162.917 37.0566C163.203 36.3896 163.654 35.4422 164.217 34.3536C165.345 32.1729 166.9 29.4762 168.454 27.3788L168.485 27.3379L168.509 27.2936C170.009 24.6069 172.267 20.505 174.166 16.9307C175.116 15.1443 175.978 13.4842 176.613 12.1966C176.93 11.5537 177.194 10.9961 177.384 10.5585C177.478 10.3402 177.558 10.1435 177.618 9.97643C177.672 9.82773 177.731 9.6427 177.75 9.47221C177.77 9.29598 177.797 9.03406 177.786 8.78666C177.781 8.66265 177.765 8.5067 177.718 8.34944C177.672 8.19914 177.573 7.9677 177.346 7.79294C177.09 7.5961 176.791 7.56186 176.538 7.6102C176.312 7.65346 176.115 7.7614 175.959 7.8688C175.642 8.08523 175.278 8.44674 174.848 8.95388C173.119 10.9901 169.655 16.1843 162.724 28.0914L162.712 28.1132L162.7 28.1358C161.612 30.316 159.677 33.7368 157.427 36.8864C156.302 38.4608 155.107 39.9547 153.908 41.1882C153.284 41.8308 152.668 42.3925 152.07 42.8556C152.925 40.3035 154.89 35.9721 158.678 30.8516L158.902 30.5491L158.808 30.185C158.676 29.6751 158.339 29.0927 157.659 28.8559C156.998 28.626 156.256 28.8101 155.506 29.2478C154.022 30.1145 151.95 32.2944 149.059 36.6908C147.066 38.94 144.423 41.7467 142.747 43.1384C142.949 42.7058 143.224 42.1731 143.582 41.5271C145.677 38.3528 148.317 34.054 149.344 31.5631C149.595 30.9538 149.793 30.3529 149.814 29.8741C149.824 29.6445 149.802 29.2791 149.554 28.9747C149.26 28.6136 148.842 28.5576 148.533 28.5976C148.245 28.6347 147.958 28.759 147.694 28.9042C147.418 29.0559 147.108 29.2641 146.763 29.5243C146.074 30.045 145.194 30.8142 144.096 31.8654L144.039 31.9205L143.993 31.986C142.636 33.9454 140.444 36.9238 138.283 39.4847C137.202 40.7663 136.141 41.9288 135.204 42.8039C134.735 43.2415 134.31 43.5964 133.937 43.8559C133.853 43.915 133.773 43.9675 133.698 44.0139C133.717 43.9553 133.738 43.8935 133.762 43.8284C134.118 42.8296 134.87 41.338 135.845 39.5963C137.784 36.133 140.498 31.8623 142.345 28.9561L142.345 28.9561L142.374 28.911L141.305 27.8106L134.146 32.0732ZM128.766 38.9745C129.372 38.6568 129.931 38.1993 130.429 37.6649C129.59 38.8288 128.672 40.0096 127.708 41.1118C126.407 42.5984 125.041 43.9185 123.685 44.8615C122.414 45.7456 121.213 46.2556 120.124 46.3214C120.121 46.3157 120.117 46.3094 120.114 46.3026C120.067 46.2129 120.015 46.0438 120.006 45.7649C119.986 45.2033 120.145 44.3416 120.622 43.1873C121.564 40.9066 123.675 37.6655 127.613 33.7069C127.659 33.6843 127.719 33.6562 127.787 33.6284C127.898 33.5836 127.998 33.5532 128.078 33.537C128.078 33.5554 128.078 33.5759 128.077 33.5987C128.071 33.7499 128.039 33.9707 127.955 34.28C127.609 35.5482 127.031 36.5818 126.592 37.3652C126.467 37.5893 126.353 37.7928 126.259 37.9756C126.174 38.1421 126.044 38.4033 126.013 38.6589C125.996 38.7926 125.984 39.0904 126.2 39.3598C126.429 39.6456 126.744 39.6916 126.909 39.6937C127.076 39.6957 127.231 39.6583 127.344 39.6245C127.467 39.5879 127.598 39.5375 127.734 39.4795C128.005 39.3636 128.348 39.194 128.766 38.9745ZM126.863 38.1214C126.863 38.1214 126.864 38.1212 126.865 38.1209L126.863 38.1214ZM162.596 37.6528L162.002 37.2092C162.018 37.1692 162.034 37.1275 162.052 37.0842C162.15 37.1114 162.25 37.1599 162.341 37.2356C162.49 37.3604 162.553 37.5073 162.579 37.5908C162.586 37.6122 162.591 37.633 162.596 37.6528ZM141.664 43.8836C141.664 43.8834 141.667 43.8826 141.672 43.8816C141.667 43.8832 141.664 43.8837 141.664 43.8836ZM133.078 44.3038C133.078 44.3036 133.08 44.3032 133.085 44.3027C133.08 44.3036 133.078 44.3039 133.078 44.3038Z" fill="#3B3B3B" stroke="white" stroke-width="1.57695"/>
<path d="M172.122 28.7785C170.043 28.2616 165.949 32.2245 164.162 34.2706L157.634 44.8356L154.74 47.5195C152.141 51.0086 153.549 52.5239 154.74 52.6855C158.249 53.2024 163.133 49.024 165.137 46.8703C174.559 34.2706 174.721 29.4246 172.122 28.7785Z" stroke="white" stroke-width="1.89234"/>
<path d="M106.324 24.6989C104.18 22.9307 101.226 23.9622 100.017 24.6989C106.797 -3.71864 134.865 4.80658 139.753 15.2265L133.603 24.6989C126.035 22.4255 117.204 32.4347 114.208 35.4345C117.614 23.0571 110.371 23.1202 106.324 24.6989Z" fill="#F2FF00"/>
<path d="M86.1264 27.7615L86.095 27.7684L86.0643 27.778C85.2202 28.0396 84.3849 28.6675 83.5948 29.4557C82.7913 30.2572 81.9709 31.2894 81.1644 32.4558C79.5506 34.7902 77.9458 37.7307 76.5992 40.6143C75.2534 43.4963 74.1495 46.3557 73.55 48.5338C73.2531 49.6126 73.0648 50.5768 73.0533 51.3102C73.0476 51.6691 73.0819 52.053 73.2251 52.3827C73.3856 52.752 73.7103 53.093 74.2214 53.1532L74.2412 53.1556L74.2611 53.1569C74.7085 53.1868 75.1665 53.022 75.5588 52.8303C75.9737 52.6275 76.4257 52.3383 76.8938 51.998C77.8317 51.316 78.9097 50.3726 80.0005 49.339C81.2216 48.1818 82.4798 46.8912 83.6064 45.6862C83.3051 46.2579 83.0425 46.7776 82.8153 47.2501C82.1348 48.6651 81.749 49.7008 81.6012 50.4637C81.4593 51.1959 81.4918 51.9287 82.0247 52.4132C82.2716 52.6377 82.5575 52.7386 82.7962 52.7876C83.0314 52.8358 83.2685 52.8428 83.4593 52.8428C83.6982 52.8428 83.9225 52.7702 84.092 52.7016C84.2748 52.6276 84.467 52.5273 84.6601 52.4139C85.0469 52.1869 85.4956 51.8731 85.9733 51.5109C86.9317 50.7843 88.0683 49.816 89.1684 48.8337C89.7879 48.2805 90.3994 47.7196 90.9656 47.1901C90.4706 48.0641 89.9342 49.0466 89.3819 50.113C89.1485 50.5637 88.9768 50.9604 88.867 51.3074C88.7599 51.646 88.6959 51.9855 88.7241 52.3043C88.7542 52.6447 88.896 52.9948 89.2181 53.2342C89.5153 53.455 89.8544 53.497 90.1121 53.4898C90.6121 53.4757 91.1685 53.2647 91.6344 53.0443C92.1262 52.8116 92.6254 52.5151 93.0428 52.2365L93.184 52.1422L93.2739 51.9982C95.6308 48.2226 99.5431 42.2711 104.541 36.7986L104.549 36.7892L104.557 36.7796C104.907 36.371 105.171 36.1457 105.352 36.0297C105.353 36.0289 105.354 36.0282 105.356 36.0274C105.192 37.3693 104.293 38.5829 103.489 39.6368L103.478 39.6514C103.279 39.912 103.081 40.1724 102.922 40.4082C102.769 40.6344 102.6 40.9145 102.521 41.2064C102.48 41.3614 102.452 41.5634 102.499 41.7843C102.549 42.0208 102.674 42.2253 102.852 42.3796C103.164 42.6489 103.58 42.7154 103.906 42.7371C105.164 42.821 106.216 42.045 107.034 41.0932C107.869 40.1208 108.603 38.8027 109.23 37.4328C110.486 34.6842 111.393 31.5338 111.814 30.0035L111.822 29.9738L111.828 29.9437C111.932 29.4064 111.964 28.9221 111.896 28.504C111.826 28.0756 111.641 27.6681 111.274 27.3891C110.915 27.1155 110.495 27.0521 110.129 27.0725C109.765 27.0927 109.392 27.1976 109.041 27.3347C107.665 27.8712 105.97 29.1676 104.856 30.15L104.825 30.1776L104.796 30.2085C104.194 30.8658 103.656 31.4425 103.179 31.9458C103.515 31.449 103.844 30.9723 104.131 30.5616C104.437 30.1241 104.655 29.7085 104.771 29.3177C104.886 28.9289 104.914 28.5072 104.756 28.115C104.404 27.2432 103.473 27.1342 102.85 27.2166C101.515 27.393 99.7894 28.5306 98.9759 30.431C98.4484 31.6634 97.2776 33.4267 95.981 35.1734C94.7015 36.8971 93.3467 38.5424 92.4901 39.5304C91.2004 40.9304 90.2595 41.8518 89.6012 42.4004C89.8231 41.7762 90.1752 40.9744 90.6149 40.063C91.5786 38.065 92.913 35.6418 94.0525 33.6286C94.5669 32.7197 95.0488 31.8823 95.4359 31.2098C95.8909 30.419 96.2149 29.8561 96.3064 29.6728L95.601 29.3205L96.3064 29.6728C96.4821 29.3211 96.6033 28.8513 96.3766 28.3968C96.1578 27.9582 95.7397 27.7901 95.4679 27.7225C94.9493 27.5936 94.3215 27.6668 93.9189 27.7477C93.612 27.777 93.3483 27.9272 93.1758 28.0405C92.9544 28.1858 92.7218 28.3812 92.4871 28.6012C92.0154 29.0433 91.4578 29.6582 90.8514 30.3711C89.8097 31.5957 88.5721 33.1718 87.3003 34.7913C87.0887 35.0607 86.8762 35.3314 86.6635 35.6018C85.1634 37.5088 83.651 39.4083 82.35 40.8591C81.6987 41.5854 81.1158 42.1818 80.6255 42.6053C80.5751 42.6488 80.5262 42.6901 80.4788 42.729C80.5232 42.6089 80.5743 42.4779 80.6326 42.3359C81.1351 41.1136 82.0337 39.4056 83.0437 37.6166C84.049 35.8361 85.1471 34.0057 86.0353 32.5485C86.432 31.8977 86.7913 31.314 87.0811 30.8433C87.4317 30.2737 87.6806 29.8694 87.7709 29.7113C87.9295 29.4333 88.0656 29.0911 88.0262 28.725C87.9793 28.2886 87.7072 27.9968 87.4096 27.8488C87.1526 27.721 86.8816 27.6973 86.6914 27.6973C86.4874 27.6973 86.2892 27.7252 86.1264 27.7615ZM88.7548 42.9741C88.7551 42.9738 88.7601 42.972 88.7692 42.97C88.7591 42.9735 88.7546 42.9745 88.7548 42.9741ZM80.2417 43.6414C80.2414 43.6417 80.2408 43.6374 80.2407 43.6278C80.2419 43.6364 80.242 43.6411 80.2417 43.6414Z" fill="#3B3B3B" stroke="white" stroke-width="1.57695"/>
<path d="M71.5143 37.4153L73.8388 36.6451L73.7537 36.832C72.5907 39.3862 70.4285 43.1151 67.7786 45.9687C65.0727 48.8825 62.4008 50.3251 60.0399 49.8376C59.9133 49.7664 59.4885 49.4196 59.3825 48.0198C59.2722 46.5632 59.6007 44.5184 60.5316 42.2574C62.3714 37.7891 66.3932 32.8856 72.9619 30.5039C73.3577 30.4246 73.779 30.3894 74.1406 30.4183C74.3334 30.4337 74.4788 30.4651 74.5796 30.4991C74.6268 30.515 74.6586 30.5296 74.6784 30.5401C74.6852 30.5747 74.6914 30.6366 74.6875 30.738C74.6728 31.1292 74.495 31.8935 73.8115 33.1597L71.5143 37.4153ZM74.6659 30.5026C74.6667 30.5016 74.6702 30.5071 74.6743 30.522C74.6672 30.5111 74.6652 30.5036 74.6659 30.5026Z" stroke="#3B3B3B" stroke-width="3.84"/>
<path d="M75.5875 36.9989L75.4695 37.0936L75.4073 37.2315C74.1514 40.016 71.8195 44.0852 68.924 47.2328C66.0026 50.4086 62.6942 52.4517 59.4346 51.6971C58.5793 51.4072 57.9202 50.3845 57.7827 48.5503C57.6473 46.7441 58.0513 44.3677 59.0828 41.8386C61.139 36.7973 65.631 31.2869 72.9572 28.6381C73.4942 28.5202 74.1057 28.4575 74.671 28.5032C75.2575 28.5506 75.7281 28.7087 76.0356 28.9708C76.3156 29.2095 76.5316 29.5938 76.5059 30.2816C76.4791 30.9976 76.1872 32.0218 75.4261 33.4452L74.6781 34.844L76.1824 34.3408C76.8302 34.1242 77.5252 33.9376 78.1001 33.853C78.3891 33.8105 78.624 33.7974 78.7965 33.8101C78.8079 33.811 78.8186 33.8119 78.8288 33.8129C78.781 33.909 78.6981 34.0452 78.5585 34.2268C78.0979 34.8265 77.1798 35.7205 75.5875 36.9989Z" stroke="white" stroke-width="1.26156"/>
<path d="M68.4798 26.4362C67.546 27.6316 42.2067 59.1239 38.8005 60L62.9609 26.4362L59.8072 25.331L60.7533 23.4365L64.2224 23.7523L66.7453 22.9629L69.4259 17.4373L54.6036 18.7003C54.6036 16.1743 62.8032 14.1219 63.7493 13.964C64.6954 13.8062 66.903 10.8065 67.2184 10.8065C67.4707 10.8065 68.7952 11.859 69.4259 12.3853C70.1618 12.2274 71.7597 11.8486 72.2643 11.596C72.895 11.2802 82.356 -2.45487 83.3022 0.386872C84.059 2.66027 78.5716 11.4381 75.7333 15.5428C76.2064 16.0165 79.8655 17.4373 79.8655 17.4373L79.0758 20.6842C79.8117 22.4735 80.4638 25.5205 80.4638 26.2783C80.4638 27.0361 79.9382 27.9623 79.6754 28.3307L73.6834 18.7003L68.4798 26.4362Z" fill="#03B7FF"/>
<path d="M2.95208 40.6391L2.9464 40.6517L2.94117 40.6646C2.29811 42.2474 1.5122 44.6516 1.27986 46.6939C1.16541 47.6999 1.17111 48.7273 1.48028 49.5381C1.64021 49.9576 1.89379 50.3515 2.28337 50.6382C2.67824 50.9287 3.15238 51.0645 3.67166 51.0645C4.34683 51.0645 5.07354 50.779 5.77031 50.3948C6.48657 49.9998 7.2641 49.4474 8.06399 48.8032C9.66527 47.5135 11.4271 45.7978 13.0728 44.0708C14.3789 42.7001 15.6276 41.3053 16.6797 40.0895C16.2368 41.2617 15.8873 42.456 15.6138 43.6094C14.937 46.4637 14.7095 49.1376 14.7095 50.7496V50.7967L14.7151 50.8435C14.9167 52.5258 15.4202 53.6415 16.0724 54.3307C16.7269 55.0222 17.514 55.2566 18.141 55.16L18.9585 55.0341L18.7936 54.2235C18.6081 53.3118 18.6783 52.0705 19.0004 50.5398C19.3198 49.0219 19.8729 47.2818 20.5972 45.4013C22.0455 41.6409 24.1512 37.3875 26.3421 33.3447C29.9179 26.7463 33.6227 20.8742 35.0973 18.5368C35.4418 17.9907 35.6646 17.6376 35.7356 17.5132C35.898 17.2286 36.0634 16.9216 36.1921 16.6211C36.3162 16.3309 36.4329 15.9871 36.4494 15.6403C36.467 15.2701 36.3685 14.822 35.9762 14.4958C35.6238 14.2027 35.166 14.1236 34.7354 14.1236C33.4232 14.1236 32.4394 14.6043 32.0349 14.9282L32.0258 14.9355L32.0169 14.9431C30.3544 16.3579 28.768 18.4455 27.419 20.4516C26.4587 21.8797 25.5898 23.3118 24.8915 24.4628C24.6088 24.9288 24.354 25.3488 24.1325 25.7037C23.5361 26.659 21.1627 29.6336 18.3771 33.0294C15.6193 36.3913 12.514 40.0987 10.4918 42.4916C9.93542 43.0931 9.52737 43.3907 9.2625 43.5309C9.26371 43.4949 9.2656 43.457 9.26826 43.4171C9.28887 43.1076 9.35219 42.7247 9.4612 42.2701C9.6793 41.3605 10.0638 40.2307 10.5761 38.9442C11.5993 36.3746 13.0984 33.2633 14.6811 30.1925C17.7284 24.2801 21.0509 18.5837 21.7837 17.3273C21.8116 17.2795 21.8357 17.2382 21.8559 17.2035L21.1746 16.8066L21.8559 17.2035C22.3175 16.4113 22.547 15.7093 22.4127 15.1168C22.3384 14.789 22.1567 14.521 21.9003 14.345C21.6586 14.179 21.3939 14.1236 21.1746 14.1236C20.3564 14.1236 19.5451 14.4978 18.7882 15.0304C18.0196 15.5713 17.226 16.3332 16.4264 17.2397C14.8257 19.0542 13.1205 21.5415 11.4581 24.2704C8.1292 29.7346 4.90524 36.2788 2.95208 40.6391ZM8.95076 43.6444C8.95095 43.6441 8.95456 43.6437 8.96103 43.6441C8.95382 43.6449 8.95058 43.6447 8.95076 43.6444Z" fill="#3B3B3B" stroke="white" stroke-width="1.57695"/>
<path d="M38.0133 48.2799C38.8719 47.5265 39.7084 46.7748 40.4504 46.1042C40.2589 46.5039 40.0623 46.9177 39.869 47.3317C39.3367 48.4719 38.8156 49.6433 38.4831 50.5602C38.3195 51.0116 38.1859 51.443 38.129 51.794C38.1016 51.9626 38.0807 52.1758 38.1162 52.3862C38.1509 52.592 38.2802 52.9833 38.7126 53.1508L38.85 53.204H38.9974C39.568 53.204 40.166 52.9966 40.74 52.7037C41.326 52.4048 41.953 51.9823 42.5986 51.4752C43.8908 50.4604 45.3216 49.0559 46.7363 47.4681C49.5623 44.2963 52.4017 40.305 54.0058 37.0331C54.1665 36.7052 54.2838 36.418 54.3562 36.1652C54.4264 35.9204 54.4703 35.6549 54.4319 35.3925C54.3889 35.0982 54.2444 34.8324 53.9966 34.6494C53.7796 34.4893 53.5473 34.4412 53.4089 34.4215L53.0022 34.3636L52.7218 34.6637C51.3962 36.082 48.3963 39.2638 46.8409 40.818C46.9324 40.5593 47.0437 40.2708 47.1742 39.955C47.4043 39.3984 47.9867 38.4214 48.7505 37.1988C48.9698 36.8478 49.2018 36.4799 49.4399 36.1024C50.0096 35.1992 50.6141 34.2407 51.1624 33.3259C51.9338 32.039 52.6366 30.7701 52.9889 29.8029C53.1555 29.3457 53.298 28.8183 53.2268 28.3537C53.1871 28.095 53.0719 27.7983 52.8036 27.5752C52.5391 27.3554 52.2264 27.2908 51.9571 27.2908C51.1109 27.2908 50.3365 27.6944 49.6867 28.1979C49.0275 28.7087 48.4135 29.3864 47.8723 30.0796C46.9495 31.2615 46.1665 32.5848 45.6891 33.3917C45.6076 33.5294 45.535 33.6521 45.4722 33.7565C45.3306 33.9916 45.0017 34.4167 44.5184 34.9866C44.0471 35.5424 43.4624 36.1973 42.8401 36.8769C41.5959 38.2355 40.2167 39.676 39.3271 40.5868L39.3271 40.5868L39.3206 40.5936C39.1974 40.7228 39.0834 40.838 38.9783 40.9406C39.2579 40.4572 39.5517 39.9533 39.8527 39.437C41.091 37.3133 42.4506 34.9813 43.4438 33.0166C44.1061 31.7063 44.6432 30.4881 44.8598 29.5704C44.963 29.133 45.0297 28.6246 44.8852 28.1824C44.8051 27.9372 44.6531 27.6928 44.398 27.5182C44.1481 27.3472 43.869 27.2908 43.6152 27.2908C43.1349 27.2908 42.6194 27.4993 42.1579 27.7404C41.6695 27.9955 41.1261 28.3506 40.5586 28.7632C39.4218 29.5898 38.1222 30.6966 36.8663 31.8357C35.7323 32.8642 34.6206 33.9312 33.6788 34.8625C34.7361 33.1701 35.8357 31.2534 36.4113 29.8651C36.5961 29.4195 36.7447 28.987 36.8113 28.6127C36.8445 28.4261 36.8644 28.2165 36.8398 28.0083C36.8153 27.8016 36.7373 27.5249 36.5081 27.3013C36.2652 27.0646 35.9635 26.9942 35.7095 26.9989C35.4709 27.0033 35.2419 27.072 35.0422 27.1543C34.6411 27.3196 34.1626 27.6233 33.6062 28.0437C32.6457 28.7696 31.6275 29.9595 30.625 31.349C29.6129 32.7517 28.5794 34.411 27.5959 36.1224C25.6381 39.5292 23.854 43.1853 22.8009 45.5301C22.7433 45.6378 22.7057 45.7493 22.6861 45.8074C22.6503 45.914 22.6127 46.0426 22.5749 46.184C22.4987 46.4685 22.4136 46.8345 22.332 47.24C22.1698 48.0456 22.0127 49.0491 21.9728 49.9121C21.9531 50.3395 21.96 50.7704 22.0245 51.139C22.0568 51.3237 22.1085 51.5225 22.1969 51.7077C22.2845 51.891 22.4316 52.1092 22.6794 52.2585C23.2531 52.6041 23.8284 52.3216 24.1592 52.0788C24.5208 51.8134 24.9079 51.3816 25.332 50.8055C28.0029 47.1772 33.2107 41.8191 35.538 39.4707C35.3712 39.7436 35.1703 40.047 34.9305 40.3814C33.7859 41.9776 32.0109 44.913 30.8166 47.4623C30.2252 48.7249 29.7441 49.959 29.5785 50.9099C29.4987 51.3676 29.4669 51.8891 29.6422 52.3347C29.7375 52.5771 29.9005 52.8116 30.155 52.9788C30.4067 53.1441 30.6874 53.204 30.9534 53.204C31.2175 53.204 31.4748 53.1265 31.6878 53.0423C31.9124 52.9535 32.1512 52.8314 32.3949 52.6904C32.8825 52.4083 33.4473 52.0167 34.0483 51.5647C35.253 50.6587 36.6676 49.4608 38.0133 48.2799ZM45.8784 41.6204C45.8785 41.6201 45.8823 41.6185 45.8895 41.6164C45.8819 41.6196 45.8783 41.6207 45.8784 41.6204Z" fill="#3B3B3B" stroke="white" stroke-width="1.57695"/>
<path d="M52.077 27.7399C52.8201 28.1035 53.6131 27.8648 54.2007 27.4771C54.8056 27.0781 55.3432 26.4384 55.7175 25.6717C56.0919 24.9049 56.2657 24.0872 56.2086 23.3643C56.1531 22.6619 55.8541 21.8887 55.111 21.5251C54.3679 21.1614 53.5748 21.4002 52.9872 21.7878C52.3824 22.1869 51.8447 22.8265 51.4704 23.5933C51.0961 24.36 50.9222 25.1777 50.9794 25.9007C51.0349 26.6031 51.3339 27.3762 52.077 27.7399Z" fill="#3B3B3B" stroke="white" stroke-width="1.57695"/>
<path d="M171.826 29.0498C169.145 28.8919 162.68 35.2069 163.153 36.312L171.826 29.0498Z" fill="#3B3B3B"/>
<path d="M158.107 51.7847L156.531 49.5745C163.595 49.0693 170.565 32.3661 171.826 29.0508C175.768 29.5244 170.407 39.1548 166.622 44.5225C164.1 48.0998 160.63 50.8375 158.107 51.7847Z" fill="#3B3B3B"/>
<path d="M171.826 29.0508L170.565 32.3662C169.303 30.9769 160.473 43.049 156.215 49.2587L154.481 47.68C161.293 35.3026 171.826 29.0508 171.826 29.0508Z" fill="#3B3B3B"/>
<path d="M153.377 51.7844C153.771 52.8467 156.739 52.2271 158.107 51.7844C156.925 49.6598 155.207 48.1776 154.496 47.6797C153.182 49.0076 153.158 50.9545 153.377 51.7844Z" fill="#3B3B3B"/>
<path d="M157.477 38.0468L156.846 43.8881L163.153 36.3101C162.523 35.8049 165.834 30.1004 167.569 27.3113C169.618 24.7853 178.449 8.20848 176.714 8.36635C175.327 8.49265 163.311 28.2059 157.477 38.0468Z" fill="#3B3B3B"/>
<path d="M139.816 23.5231L141.078 25.2597C145.335 19.1026 151.642 12.1035 154.638 9.31442L154.008 7.41992C150.476 8.30402 142.654 17.8396 139.816 23.5231Z" fill="#3B3B3B"/>
<path d="M153.692 7.5767L154.638 9.31332C155.648 9.18705 155.585 13.2602 155.427 15.3125C158.896 10.2605 157.634 7.41889 156.215 6.9452C155.571 6.73009 154.165 7.10313 153.692 7.5767Z" fill="#3B3B3B"/>
<path d="M141.235 25.5752C148.678 21.7862 153.692 13.682 155.269 10.1035L155.585 10.5771V14.9976C148.173 24.7858 146.965 23.6807 142.812 27.4697L141.235 25.5752Z" fill="#3B3B3B"/>
<path d="M147.905 24.9462L147.973 24.9073L148.031 24.856C149.977 23.1482 152.838 20.3165 155.11 17.3548C156.245 15.8749 157.253 14.3382 157.921 12.8749C158.579 11.4345 158.96 9.95784 158.692 8.6425C158.548 7.84943 158.141 6.99174 157.286 6.5285C156.417 6.05796 155.309 6.11522 154.035 6.67204C151.525 7.76873 147.833 11.0257 142.467 18.1036L142.439 18.1415L142.415 18.1825L135.319 30.3387L134.393 31.9248L136.181 31.5037L141.542 30.2407L141.929 30.1494L142.086 29.7835L142.086 29.7834C142.087 29.7819 142.095 29.7641 142.118 29.7275C142.141 29.6902 142.173 29.6421 142.217 29.5827C142.304 29.4636 142.426 29.3149 142.582 29.1402C142.894 28.7913 143.323 28.3615 143.85 27.8901C144.904 26.9469 146.319 25.8623 147.905 24.9462Z" stroke="white" stroke-width="1.57695"/>
<path d="M142.5 26L141 24.5L140.5 25.5L142.5 26Z" fill="#3B3B3B"/>
<path d="M139.816 23.5234L142.812 27.4703C141.551 28.5754 135.296 38.8373 132.878 44.205C132.752 45.0891 133.193 45.0996 133.509 44.9944L137.451 41.679L139.185 43.5735L134.613 48.3097C133.856 49.0675 132.405 50.52 130.513 51.6251C128.621 53.046 127.517 53.046 127.517 51.3094C127.517 50.1727 129.724 45.047 130.828 42.6263L134.77 32.3644L137.135 27.786L139.816 23.5234Z" fill="#3B3B3B"/>
<path d="M142.013 24.6227C140.873 24.2788 152.849 9.15043 154.275 10.1532C157.696 10.1532 145.863 25.0525 142.013 24.6227Z" stroke="white" stroke-width="1.26156"/>
<path d="M156.805 48.9454C156.238 49.086 167.008 33.1965 168.986 33.4773C169.843 33.196 166.016 45.8522 156.805 48.9454Z" stroke="white" stroke-width="1.26156"/>
<path d="M72 33C64.5751 35.2194 59.5 47.5 62.1239 47.7962C64 48.008 68.589 42.3357 70.9291 38.6807L68 40L72 33Z" stroke="white" stroke-width="1.26156"/>
<path d="M170.5 35L169 32.5L171.5 31.5L170.5 35Z" fill="#3B3B3B"/>
<path d="M156 10L153 9L156 8.5V10Z" fill="#3B3B3B"/>
</svg>
